<?xml version="1.0" standalone="no"?>
<!DOCTYPE svg PUBLIC "-//W3C//DTD SVG 20010904//EN"
 "http://www.w3.org/TR/2001/REC-SVG-20010904/DTD/svg10.dtd">
<svg version="1.0" xmlns="http://www.w3.org/2000/svg"
 width="700.000000pt" height="700.000000pt" viewBox="0 0 700.000000 700.000000"
 preserveAspectRatio="xMidYMid meet">
<metadata>
Created by potrace 1.14, written by Peter Selinger 2001-2017
</metadata>
<g transform="translate(0.000000,700.000000) scale(0.100000,-0.100000)"
fill="#000000" stroke="none">
<path d="M3327 6414 c-1 -1 -38 -5 -82 -9 -88 -7 -117 -10 -185 -21 -46 -7
-51 -8 -110 -19 -19 -4 -46 -9 -60 -12 -126 -22 -383 -105 -536 -173 -581
-256 -1042 -660 -1362 -1192 -129 -213 -280 -579 -327 -788 -18 -83 -54 -278
-59 -327 -32 -287 -26 -623 14 -838 6 -27 13 -68 16 -90 8 -58 69 -288 97
-370 81 -234 217 -505 360 -715 392 -577 1005 -1009 1677 -1183 116 -30 183
-45 235 -52 38 -5 60 -9 130 -20 152 -25 554 -25 730 0 169 23 203 30 333 61
313 75 615 209 912 403 77 50 208 146 220 161 3 3 18 15 33 27 128 98 327 308
462 488 264 351 469 808 539 1200 3 17 8 39 10 50 2 11 7 45 11 75 4 30 9 64
11 75 23 122 23 559 0 715 -3 14 -7 43 -9 65 -40 298 -128 574 -279 875 -150
300 -306 518 -533 745 -149 150 -169 169 -255 235 -25 19 -51 41 -59 48 -7 7
-70 51 -140 96 -287 190 -595 327 -907 405 -149 37 -232 52 -444 77 -45 5
-438 12 -443 8z m276 -585 c117 -3 139 -9 104 -28 -13 -7 -31 -28 -42 -47 -60
-112 56 -246 175 -202 37 14 78 57 90 94 14 40 0 99 -32 140 -13 15 -18 25
-12 21 6 -3 42 -11 80 -17 38 -6 113 -23 167 -37 l97 -26 0 -34 c0 -109 115
-182 210 -133 22 11 44 29 50 40 10 19 13 18 85 -17 l75 -37 -37 -18 c-52 -25
-68 -43 -83 -88 -16 -48 -2 -106 33 -143 90 -94 247 -29 247 102 l0 40 33 -19
c17 -11 44 -30 59 -42 15 -13 44 -36 65 -53 174 -139 355 -339 487 -534 69
-103 89 -140 68 -127 -15 9 -86 -39 -105 -72 -74 -126 72 -268 199 -193 29 18
39 19 45 9 5 -7 28 -74 53 -148 46 -140 89 -333 101 -455 4 -38 9 -81 11 -95
5 -35 5 -379 0 -415 -2 -16 -7 -59 -11 -95 -4 -36 -9 -74 -11 -85 -2 -11 -6
-36 -9 -55 -13 -97 -89 -360 -132 -460 -85 -195 -202 -392 -326 -548 -144
-180 -374 -391 -552 -508 -50 -32 -99 -65 -110 -72 -105 -68 -468 -216 -587
-238 -18 -3 -37 -7 -43 -8 -71 -16 -81 -18 -197 -36 -109 -16 -166 -19 -353
-19 -168 0 -198 2 -305 14 -63 7 -275 49 -335 66 -212 59 -430 159 -624 286
-63 41 -119 80 -126 86 -6 7 -27 23 -45 37 -79 61 -257 230 -335 320 -249 287
-436 659 -504 1000 -21 103 -22 107 -36 218 -15 116 -21 412 -11 507 2 17 7
57 10 90 18 169 56 335 112 497 45 130 47 132 88 107 47 -27 90 -30 136 -7 48
24 81 74 82 126 1 64 -46 127 -101 138 -37 8 -35 12 42 129 142 213 354 435
577 604 l65 49 5 -47 c3 -26 13 -59 23 -74 77 -117 261 -65 262 74 0 60 -20
96 -73 130 l-43 27 69 35 69 36 19 -23 c54 -66 149 -70 210 -9 31 31 44 63 44
109 0 19 3 34 6 34 3 0 49 11 102 25 109 27 140 34 196 42 l39 5 -20 -28 c-28
-41 -35 -78 -23 -124 12 -44 66 -95 111 -105 78 -17 170 54 171 133 0 49 -26
105 -57 122 -14 7 -22 16 -19 19 5 6 202 19 214 14 3 -1 54 -3 113 -4z"/>
<path d="M2861 5529 c-30 -12 -69 -54 -82 -88 -15 -37 -2 -104 24 -134 29 -32
79 -57 114 -57 74 2 143 71 143 144 0 102 -105 173 -199 135z"/>
<path d="M3423 5514 c-93 -61 -91 -175 4 -239 111 -76 258 50 206 175 -21 50
-66 82 -121 87 -39 4 -54 0 -89 -23z"/>
<path d="M4012 5520 c-135 -83 -63 -289 93 -265 47 7 76 27 104 75 33 55 26
113 -21 162 -49 53 -118 63 -176 28z"/>
<path d="M1985 5236 c-114 -51 -116 -203 -3 -262 82 -43 189 18 205 117 7 45
-29 111 -76 137 -44 25 -82 27 -126 8z"/>
<path d="M2562 5234 c-121 -62 -98 -245 34 -270 111 -21 199 81 163 188 -25
78 -124 119 -197 82z"/>
<path d="M3144 5233 c-46 -23 -83 -85 -79 -134 14 -166 239 -189 283 -28 31
114 -97 216 -204 162z"/>
<path d="M3719 5227 c-99 -65 -92 -198 13 -253 60 -31 146 -5 182 56 75 127
-74 278 -195 197z"/>
<path d="M4312 5233 c-72 -35 -103 -136 -63 -201 48 -75 138 -94 209 -43 140
102 10 321 -146 244z"/>
<path d="M4887 5228 c-82 -48 -97 -154 -31 -222 62 -64 151 -61 207 5 40 46
49 84 31 135 -31 92 -126 129 -207 82z"/>
<path d="M1680 4937 c-71 -48 -92 -117 -58 -187 53 -107 198 -107 256 0 25 46
20 102 -13 146 -32 42 -53 53 -109 59 -34 4 -51 -1 -76 -18z"/>
<path d="M2295 4953 c-56 -15 -105 -78 -105 -136 0 -124 151 -197 235 -113 37
37 45 52 51 94 13 93 -87 179 -181 155z"/>
<path d="M2848 4938 c-41 -24 -78 -83 -78 -124 1 -39 29 -93 61 -117 120 -88
273 38 215 177 -30 72 -128 104 -198 64z"/>
<path d="M3445 4946 c-110 -47 -117 -208 -13 -261 98 -48 210 20 212 130 0 46
-34 104 -76 126 -32 17 -89 19 -123 5z"/>
<path d="M4021 4943 c-51 -25 -76 -69 -76 -135 0 -46 4 -61 25 -83 91 -97 236
-57 257 70 17 104 -109 195 -206 148z"/>
<path d="M4599 4937 c-77 -52 -98 -138 -50 -206 78 -110 246 -66 259 68 8 84
-46 148 -132 156 -33 4 -51 0 -77 -18z"/>
<path d="M5195 4946 c-38 -17 -85 -70 -86 -99 -5 -77 13 -119 65 -155 96 -66
233 20 219 137 -11 92 -116 154 -198 117z"/>
<path d="M1995 4655 c-102 -36 -130 -158 -54 -234 60 -60 146 -58 205 4 52 55
54 119 7 183 -39 52 -95 69 -158 47z"/>
<path d="M2570 4654 c-53 -21 -93 -87 -87 -143 9 -79 68 -134 143 -133 76 2
132 55 141 134 12 103 -98 182 -197 142z"/>
<path d="M3166 4659 c-65 -18 -112 -97 -100 -163 21 -115 171 -158 248 -72 42
48 51 111 22 162 -34 61 -106 92 -170 73z"/>
<path d="M3734 4650 c-78 -34 -109 -132 -65 -203 73 -119 259 -72 266 67 5
109 -102 181 -201 136z"/>
<path d="M4313 4649 c-50 -26 -75 -62 -81 -118 -4 -51 19 -97 69 -134 37 -27
111 -27 147 0 93 69 94 178 2 244 -37 28 -92 31 -137 8z"/>
<path d="M4925 4663 c-76 -20 -132 -117 -106 -186 24 -62 99 -110 160 -100 66
10 122 74 123 142 1 55 -29 102 -82 129 -44 22 -58 24 -95 15z"/>
<path d="M4310 3565 c-114 -18 -214 -94 -268 -204 -24 -49 -27 -68 -27 -152 0
-90 2 -100 35 -165 111 -217 403 -268 576 -99 68 67 103 141 111 233 20 241
-185 427 -427 387z"/>
<path d="M2525 3561 c-109 -29 -223 -143 -252 -251 -4 -14 -7 -63 -7 -110 0
-106 29 -178 103 -250 217 -213 586 -83 617 217 17 157 -62 300 -204 370 -47
23 -71 28 -142 30 -47 1 -98 -2 -115 -6z"/>
</g>
</svg>
